<svg width="138" height="36" viewBox="0 0 138 36" fill="none" xmlns="http://www.w3.org/2000/svg">
<path d="M0.98 35V2H7.96C11.1733 2 13.6667 2.72 15.44 4.16C17.2267 5.58667 18.12 7.64667 18.12 10.34C18.12 13.9667 16.5333 16.4467 13.36 17.78C15.8133 18.1267 17.7067 19.0267 19.04 20.48C20.3733 21.92 21.04 23.8133 21.04 26.16C21.04 28.0133 20.6267 29.6 19.8 30.92C18.9733 32.24 17.7867 33.2533 16.24 33.96C14.6933 34.6533 12.8467 35 10.7 35H0.98ZM4.02 16.84H7.42C9.92667 16.84 11.8533 16.3067 13.2 15.24C14.5467 14.16 15.22 12.6267 15.22 10.64C15.22 8.62667 14.5467 7.08666 13.2 6.02C11.8533 4.95333 9.92667 4.42 7.42 4.42H4.02V16.84ZM4.02 32.52H9.9C12.4733 32.52 14.4533 31.9667 15.84 30.86C17.24 29.74 17.94 28.1467 17.94 26.08C17.94 24.0133 17.2333 22.4067 15.82 21.26C14.42 20.1 12.4467 19.52 9.9 19.52H4.02V32.52ZM31.2375 35V14.52H34.1575V17.54C34.8108 16.34 35.6508 15.4333 36.6775 14.82C37.7175 14.1933 38.9175 13.88 40.2775 13.88C40.8775 13.88 41.4842 13.9467 42.0975 14.08C42.7242 14.2133 43.2642 14.3867 43.7175 14.6L42.5175 17.06C42.1175 16.86 41.6575 16.7067 41.1375 16.6C40.6308 16.4933 40.1442 16.44 39.6775 16.44C38.7308 16.44 37.8375 16.68 36.9975 17.16C36.1575 17.64 35.4708 18.2667 34.9375 19.04C34.4175 19.8 34.1575 20.6133 34.1575 21.48V35H31.2375ZM53.0691 35V14.52H55.9891V35H53.0691ZM54.5491 10.42C54.1891 10.42 53.8624 10.3333 53.5691 10.16C53.2891 9.98666 53.0624 9.75333 52.8891 9.46C52.7157 9.16667 52.6291 8.84667 52.6291 8.5C52.6291 8.15333 52.7157 7.84 52.8891 7.56C53.0624 7.26667 53.2891 7.03333 53.5691 6.86C53.8624 6.68667 54.1891 6.6 54.5491 6.6C54.8957 6.6 55.2091 6.68667 55.4891 6.86C55.7691 7.03333 55.9957 7.26 56.1691 7.54C56.3557 7.82 56.4491 8.14 56.4491 8.5C56.4491 8.84667 56.3557 9.16667 56.1691 9.46C55.9957 9.75333 55.7691 9.98666 55.4891 10.16C55.2091 10.3333 54.8957 10.42 54.5491 10.42ZM77.3525 35.64C75.4325 35.64 73.6992 35.1733 72.1525 34.24C70.6192 33.3067 69.3992 32.02 68.4925 30.38C67.5992 28.74 67.1525 26.8667 67.1525 24.76C67.1525 22.6667 67.5992 20.8067 68.4925 19.18C69.3858 17.54 70.5992 16.2467 72.1325 15.3C73.6792 14.3533 75.4325 13.88 77.3925 13.88C79.2192 13.88 80.8725 14.3133 82.3525 15.18C83.8325 16.0467 84.9925 17.2467 85.8325 18.78V0.579998H88.7525V35H85.8325V30.68C84.9658 32.2267 83.7858 33.44 82.2925 34.32C80.8125 35.2 79.1658 35.64 77.3525 35.64ZM78.0525 33.1C79.5858 33.1 80.9458 32.7467 82.1325 32.04C83.3192 31.32 84.2525 30.3333 84.9325 29.08C85.6125 27.8133 85.9525 26.38 85.9525 24.78C85.9525 23.1533 85.6125 21.7133 84.9325 20.46C84.2658 19.1933 83.3325 18.2067 82.1325 17.5C80.9458 16.78 79.5858 16.42 78.0525 16.42C76.5325 16.42 75.1792 16.78 73.9925 17.5C72.8058 18.2067 71.8725 19.1933 71.1925 20.46C70.5125 21.7133 70.1725 23.1533 70.1725 24.78C70.1725 26.3933 70.5058 27.8267 71.1725 29.08C71.8525 30.3333 72.7858 31.32 73.9725 32.04C75.1725 32.7467 76.5325 33.1 78.0525 33.1ZM110.103 35.64C108.183 35.64 106.449 35.1733 104.903 34.24C103.369 33.2933 102.149 32 101.243 30.36C100.349 28.72 99.9025 26.8467 99.9025 24.74C99.9025 22.66 100.343 20.8067 101.223 19.18C102.116 17.54 103.329 16.2467 104.863 15.3C106.409 14.3533 108.156 13.88 110.103 13.88C111.956 13.88 113.636 14.3133 115.143 15.18C116.649 16.0467 117.796 17.2467 118.583 18.78V14.52H121.503V35H118.583V30.68C117.703 32.2267 116.523 33.44 115.043 34.32C113.563 35.2 111.916 35.64 110.103 35.64ZM110.823 33.1C112.356 33.1 113.709 32.7467 114.883 32.04C116.069 31.32 117.003 30.3333 117.683 29.08C118.363 27.8133 118.703 26.3733 118.703 24.76C118.703 23.1333 118.363 21.6933 117.683 20.44C117.016 19.1867 116.089 18.2067 114.903 17.5C113.716 16.78 112.356 16.42 110.823 16.42C109.289 16.42 107.929 16.78 106.743 17.5C105.556 18.2067 104.623 19.1867 103.943 20.44C103.263 21.6933 102.923 23.1333 102.923 24.76C102.923 26.3733 103.263 27.8133 103.943 29.08C104.623 30.3333 105.556 31.32 106.743 32.04C107.929 32.7467 109.289 33.1 110.823 33.1ZM134.113 35V0.599999H137.033V35H134.113Z" fill="white"/>
</svg>
